<svg width="30" height="16" viewBox="0 0 30 16" fill="none" xmlns="http://www.w3.org/2000/svg">
<style>
  .brackets {
    fill: black;
  }
  .text {
    fill: #8C69F7;
  }
  @media (prefers-color-scheme: dark) {
    .brackets {
      fill: white;
    }
    .text {
      fill: #1af0ff;
    }
  }
</style>
<path class="brackets" d="M0.328125 8.79688V6.92188C0.708333 6.90104 0.994792 6.84375 1.1875 6.75C1.38021 6.65625 1.54688 6.5 1.6875 6.28125C1.82812 6.05729 1.92448 5.77865 1.97656 5.44531C2.01823 5.19531 2.03906 4.76042 2.03906 4.14062C2.03906 3.13021 2.08594 2.42708 2.17969 2.03125C2.27344 1.63021 2.44271 1.3099 2.6875 1.07031C2.93229 0.825521 3.28906 0.632812 3.75781 0.492188C4.07552 0.398438 4.57552 0.351562 5.25781 0.351562H5.67188V2.21875C5.09375 2.21875 4.72135 2.2526 4.55469 2.32031C4.39323 2.38281 4.27344 2.48177 4.19531 2.61719C4.11719 2.7474 4.07812 2.97396 4.07812 3.29688C4.07812 3.625 4.05469 4.2474 4.00781 5.16406C3.98177 5.67969 3.91406 6.09896 3.80469 6.42188C3.69531 6.73958 3.55469 7.0026 3.38281 7.21094C3.21615 7.41927 2.95833 7.63542 2.60938 7.85938C2.91667 8.03646 3.16667 8.24479 3.35938 8.48438C3.55729 8.71875 3.70833 9.00521 3.8125 9.34375C3.91667 9.68229 3.98438 10.1354 4.01562 10.7031C4.05208 11.5677 4.07031 12.1198 4.07031 12.3594C4.07031 12.7031 4.11198 12.9427 4.19531 13.0781C4.27865 13.2135 4.40365 13.3151 4.57031 13.3828C4.74219 13.4557 5.10938 13.4922 5.67188 13.4922V15.3672H5.25781C4.55469 15.3672 4.01562 15.3099 3.64062 15.1953C3.26562 15.0859 2.94792 14.901 2.6875 14.6406C2.43229 14.3802 2.26042 14.0573 2.17188 13.6719C2.08333 13.2917 2.03906 12.6901 2.03906 11.8672C2.03906 10.9089 1.9974 10.2865 1.91406 10C1.79948 9.58333 1.625 9.28646 1.39062 9.10938C1.16146 8.92708 0.807292 8.82292 0.328125 8.79688ZM29.6016 8.79688C29.2214 8.81771 28.9349 8.875 28.7422 8.96875C28.5495 9.0625 28.3828 9.22135 28.2422 9.44531C28.1068 9.66406 28.0104 9.9401 27.9531 10.2734C27.9115 10.5234 27.8906 10.9557 27.8906 11.5703C27.8906 12.5807 27.8438 13.2865 27.75 13.6875C27.6615 14.0885 27.4948 14.4089 27.25 14.6484C27.0052 14.8932 26.6458 15.0859 26.1719 15.2266C25.8542 15.3203 25.3542 15.3672 24.6719 15.3672H24.2578V13.4922C24.8151 13.4922 25.1797 13.4557 25.3516 13.3828C25.5234 13.3151 25.6484 13.2135 25.7266 13.0781C25.8099 12.9479 25.8516 12.724 25.8516 12.4062C25.8568 12.0885 25.8802 11.4818 25.9219 10.5859C25.9479 10.0443 26.0182 9.61198 26.1328 9.28906C26.2474 8.96094 26.3984 8.6849 26.5859 8.46094C26.7786 8.23177 27.0234 8.03125 27.3203 7.85938C26.9349 7.60938 26.6536 7.36458 26.4766 7.125C26.2318 6.78125 26.0651 6.34375 25.9766 5.8125C25.9193 5.44792 25.8776 4.64583 25.8516 3.40625C25.8464 3.01562 25.8099 2.75521 25.7422 2.625C25.6797 2.49479 25.5625 2.39583 25.3906 2.32812C25.224 2.25521 24.8464 2.21875 24.2578 2.21875V0.351562H24.6719C25.375 0.351562 25.9141 0.40625 26.2891 0.515625C26.6641 0.625 26.9792 0.8125 27.2344 1.07812C27.4896 1.33854 27.6615 1.66146 27.75 2.04688C27.8438 2.42708 27.8906 3.02865 27.8906 3.85156C27.8906 4.80469 27.9297 5.42708 28.0078 5.71875C28.1224 6.13542 28.2969 6.4349 28.5312 6.61719C28.7656 6.79427 29.1224 6.89583 29.6016 6.92188V8.79688Z" fill="black"/>
<path class="text" d="M11.6484 2.57812V0.546875H13.8438V2.57812H11.6484ZM13.8438 3.70312V11.7422C13.8438 12.7995 13.7734 13.5443 13.6328 13.9766C13.4974 14.4141 13.2318 14.7552 12.8359 15C12.4453 15.2448 11.9453 15.3672 11.3359 15.3672C11.1172 15.3672 10.8802 15.3464 10.625 15.3047C10.375 15.2682 10.1042 15.2109 9.8125 15.1328L10.1953 13.2578C10.2995 13.2786 10.3984 13.2943 10.4922 13.3047C10.5807 13.3203 10.6641 13.3281 10.7422 13.3281C10.9661 13.3281 11.1484 13.2786 11.2891 13.1797C11.4349 13.0859 11.5312 12.9714 11.5781 12.8359C11.625 12.7005 11.6484 12.2943 11.6484 11.6172V3.70312H13.8438ZM16.1484 12V0.546875H18.3438V12H16.1484Z" fill="#8C69F7"/>
</svg>
